<svg xmlns="http://www.w3.org/2000/svg" viewBox="0 0 512 512"><!--!Font Awesome Free 6.6.0 by @fontawesome - https://fontawesome.com License - https://fontawesome.com/license/free Copyright 2024 Fonticons, Inc.--><path d="M462.8 49.6a169.4 169.4 0 0 0 -239.5 0C187.8 85 160.1 128 160.1 192v85.8l-40.6 40.6c-9.7 9.7-24 11.1-36.8 6a60.3 60.3 0 0 0 -65 98.7C33 438.4 54.2 442.7 73.9 438.2c-4.5 19.6-.2 40.8 15.1 56.1a60.4 60.4 0 0 0 98.8-65c-5.1-12.7-3.7-27 6-36.8L234.4 352h85.9a187.9 187.9 0 0 0 61.9-10c-39.6-43.9-39.8-110.2 1.1-151.1 34.4-34.4 86.8-39.5 128.7-16.8 1.3-45-14.8-90.3-49.1-124.6z"/></svg>